<svg width="213" height="52" viewBox="0 0 213 52" fill="none" xmlns="http://www.w3.org/2000/svg">
<path d="M3.41551 26.8459C4.87557 26.7956 6 26.5 6 26.5C6 26.5 4.87557 26.2044 3.41551 26.1533C3.35522 24.9372 3.0005 24 3.0005 24C3.0005 24 2.64478 24.9372 2.58449 26.1533C1.12343 26.2044 0 26.5 0 26.5C0 26.5 1.12343 26.7956 2.58449 26.8459C2.64478 28.0637 3.0005 29 3.0005 29C3.0005 29 3.35622 28.0637 3.41551 26.8459Z" fill="#14B8A6"/>
<path d="M9.55418 30.5538C11.5009 30.4732 13 30 13 30C13 30 11.5009 29.5268 9.55418 29.4462C9.47368 27.4993 8.99951 26 8.99951 26C8.99951 26 8.52632 27.4993 8.44582 29.4462C6.49908 29.5268 5 30 5 30C5 30 6.49908 30.4732 8.44582 30.5538C8.52632 32.5007 8.99951 34 8.99951 34C8.99951 34 9.47368 32.5007 9.55418 30.5538V30.5538Z" fill="#14B8A6"/>
<path d="M21.2767 16.2767C22.2499 16.2367 23 16 23 16C23 16 22.2509 15.7633 21.2767 15.7223C21.2367 14.7491 21 14 21 14C21 14 20.7633 14.7501 20.7233 15.7223C19.7491 15.7633 19 16 19 16C19 16 19.7491 16.2367 20.7233 16.2767C20.7633 17.2509 21 18 21 18C21 18 21.2367 17.2509 21.2767 16.2767Z" fill="#14B8A6"/>
<path d="M24.8464 18.846C26.0634 18.7959 27 18.5 27 18.5C27 18.5 26.0634 18.2041 24.8464 18.154C24.7963 16.9368 24.4995 16 24.4995 16C24.4995 16 24.2037 16.9377 24.1536 18.154C22.9366 18.2041 22 18.5 22 18.5C22 18.5 22.9366 18.7959 24.1536 18.846C24.2037 20.0632 24.4995 21 24.4995 21C24.4995 21 24.7953 20.0632 24.8464 18.846Z" fill="#14B8A6"/>
<path d="M9.44801 11.0439C9.07747 11.1493 8.70693 11.2647 8.33966 11.3912C8.66976 11.2065 9.00751 11.0309 9.35292 10.8613L7.86528 8C4.64626 11.3922 2.61866 15.5862 2 20C3.55978 16.7172 6.30004 13.8881 10 12.1057L9.44801 11.0439V11.0439Z" fill="#14B8A6"/>
<path d="M15.1311 2.26817C14.0208 2.81545 12.9765 3.44462 12 4.1457L13.7216 8.90544C21.8098 6.91506 30.4512 10.8199 34.2379 18.7245C38.6053 27.8405 34.861 38.8231 25.876 43.2533C25.3504 43.5129 24.8179 43.7436 24.2814 43.9474C29.1105 40.9653 32.1373 35.9639 32.8096 30.561C31.6097 34.8393 28.6883 38.6004 24.435 40.6986C20.8766 42.4533 16.9925 42.7449 13.443 41.8072C18.9316 45.1308 25.7392 45.9927 32.0724 43.7616C40.6084 38.0002 43.8459 26.5832 39.2402 16.9688C34.5076 7.09282 23.1878 2.64368 13.2521 6.41771C13.8151 6.06917 14.3988 5.7456 15.0042 5.44699C25.3406 0.349693 37.7923 4.71895 42.8153 15.2062C47.6582 25.3159 43.8291 37.4189 34.2881 42.8428C34.3639 42.8059 34.4397 42.7699 34.5155 42.733C45.5291 37.3021 50.117 23.8408 44.7643 12.6675C39.4115 1.49319 26.1448 -3.16269 15.1311 2.26817Z" fill="#14B8A6"/>
<path d="M7.87422 3.0884C6.93439 3.48161 6.71857 5.07314 7.39187 6.64403L16.7027 25.9213L15.3322 26.4924C14.82 26.7048 14.5803 27.2887 14.7961 27.7949C14.9135 28.0702 15.1432 28.2658 15.4098 28.3523C16.7484 32.8526 13.2914 38.6722 12.1049 40.4839C13.0478 40.7287 14.0015 40.886 14.9553 40.9587C16.814 38.5906 17.8295 35.5805 17.6345 32.4063C17.7101 32.7406 17.7777 33.0787 17.8275 33.4238C18.2153 36.1242 17.7101 38.7449 16.5395 41C18.0393 40.9666 19.5231 40.7257 20.9483 40.2863C21.3899 38.7724 21.553 37.1603 21.3859 35.5147C21.4754 35.845 21.555 36.1812 21.6176 36.5243C21.8354 37.7019 21.8802 38.8708 21.7718 40.0071C23.004 39.553 24.1825 38.9484 25.2795 38.1984C25.3421 35.3741 24.462 32.5253 22.6072 30.1542C22.8608 30.3882 23.1084 30.631 23.3461 30.8885C25.0557 32.7465 26.1 34.9681 26.5027 37.2714C27.4167 36.5075 28.2561 35.6326 29 34.6506C28.7205 31.5029 23.6514 27.6789 20.9374 26.0274C21.0507 25.7837 21.0647 25.4956 20.9503 25.2292C20.7345 24.723 20.1437 24.4861 19.6325 24.6984L18.2362 25.2803L10.7932 5.2206C10.1209 3.6507 8.81305 2.69519 7.87521 3.0884H7.87422Z" fill="#292929"/>
<path d="M69.872 34.12C67.968 34.12 66.312 33.776 64.904 33.088C63.496 32.384 62.416 31.392 61.664 30.112C60.912 28.832 60.536 27.344 60.536 25.648C60.536 23.296 60.976 21.208 61.856 19.384C62.752 17.56 63.96 16.152 65.48 15.16C67 14.152 68.688 13.648 70.544 13.648C72.272 13.648 73.584 14.096 74.48 14.992C75.376 15.872 75.824 17.04 75.824 18.496C75.824 19.472 75.648 20.256 75.296 20.848C74.96 21.44 74.472 21.736 73.832 21.736C73.384 21.736 73.032 21.632 72.776 21.424C72.52 21.216 72.392 20.912 72.392 20.512C72.392 20.368 72.424 20.104 72.488 19.72C72.584 19.24 72.632 18.856 72.632 18.568C72.632 17.112 71.856 16.384 70.304 16.384C69.248 16.384 68.24 16.728 67.28 17.416C66.32 18.104 65.544 19.12 64.952 20.464C64.36 21.792 64.064 23.376 64.064 25.216C64.064 27.136 64.6 28.624 65.672 29.68C66.744 30.72 68.328 31.24 70.424 31.24C71.464 31.24 72.512 31.112 73.568 30.856C74.64 30.584 75.824 30.176 77.12 29.632C77.36 29.536 77.56 29.488 77.72 29.488C77.976 29.488 78.168 29.584 78.296 29.776C78.424 29.968 78.488 30.216 78.488 30.52C78.488 31.496 77.96 32.216 76.904 32.68C75.768 33.176 74.584 33.544 73.352 33.784C72.136 34.008 70.976 34.12 69.872 34.12ZM85.7011 28.648C85.9091 28.648 86.0691 28.744 86.1811 28.936C86.3091 29.128 86.3731 29.392 86.3731 29.728C86.3731 30.368 86.2211 30.864 85.9171 31.216C85.2291 32.064 84.4771 32.76 83.6611 33.304C82.8611 33.848 81.9491 34.12 80.9251 34.12C79.5171 34.12 78.4691 33.48 77.7811 32.2C77.1091 30.92 76.7731 29.264 76.7731 27.232C76.7731 25.28 77.0211 23.056 77.5171 20.56C78.0291 18.064 78.7731 15.92 79.7491 14.128C80.7411 12.336 81.9171 11.44 83.2771 11.44C84.0451 11.44 84.6451 11.8 85.0771 12.52C85.5251 13.224 85.7491 14.24 85.7491 15.568C85.7491 17.472 85.2211 19.68 84.1651 22.192C83.1091 24.704 81.6771 27.192 79.8691 29.656C79.9811 30.312 80.1651 30.784 80.4211 31.072C80.6771 31.344 81.0131 31.48 81.4291 31.48C82.0851 31.48 82.6611 31.296 83.1571 30.928C83.6531 30.544 84.2851 29.896 85.0531 28.984C85.2451 28.76 85.4611 28.648 85.7011 28.648ZM82.7491 13.816C82.3811 13.816 81.9651 14.48 81.5011 15.808C81.0371 17.136 80.6291 18.784 80.2771 20.752C79.9251 22.72 79.7331 24.608 79.7011 26.416C80.8371 24.544 81.7411 22.672 82.4131 20.8C83.0851 18.912 83.4211 17.192 83.4211 15.64C83.4211 14.424 83.1971 13.816 82.7491 13.816ZM95.1373 28.648C95.3453 28.648 95.5053 28.744 95.6172 28.936C95.7453 29.128 95.8093 29.392 95.8093 29.728C95.8093 30.368 95.6573 30.864 95.3533 31.216C94.7613 31.936 93.9213 32.6 92.8333 33.208C91.7613 33.816 90.6093 34.12 89.3773 34.12C87.6973 34.12 86.3933 33.664 85.4653 32.752C84.5373 31.84 84.0732 30.592 84.0732 29.008C84.0732 27.904 84.3053 26.88 84.7693 25.936C85.2333 24.976 85.8733 24.216 86.6893 23.656C87.5213 23.096 88.4573 22.816 89.4973 22.816C90.4253 22.816 91.1693 23.096 91.7293 23.656C92.2893 24.2 92.5693 24.944 92.5693 25.888C92.5693 26.992 92.1693 27.944 91.3693 28.744C90.5853 29.528 89.2493 30.152 87.3613 30.616C87.7613 31.352 88.5213 31.72 89.6413 31.72C90.3613 31.72 91.1773 31.472 92.0893 30.976C93.0173 30.464 93.8173 29.8 94.4893 28.984C94.6813 28.76 94.8973 28.648 95.1373 28.648ZM89.0893 25.168C88.4973 25.168 87.9933 25.512 87.5773 26.2C87.1773 26.888 86.9773 27.72 86.9773 28.696V28.744C87.9213 28.52 88.6653 28.184 89.2093 27.736C89.7533 27.288 90.0253 26.768 90.0253 26.176C90.0253 25.872 89.9373 25.632 89.7613 25.456C89.6013 25.264 89.3773 25.168 89.0893 25.168ZM96.6899 34.12C95.6979 34.12 94.9059 33.76 94.3139 33.04C93.7219 32.32 93.4259 31.376 93.4259 30.208C93.4259 28.928 93.7219 27.72 94.3139 26.584C94.9059 25.432 95.6899 24.512 96.6659 23.824C97.6579 23.12 98.7059 22.768 99.8099 22.768C100.162 22.768 100.394 22.84 100.506 22.984C100.634 23.112 100.738 23.352 100.818 23.704C101.154 23.64 101.506 23.608 101.874 23.608C102.658 23.608 103.05 23.888 103.05 24.448C103.05 24.784 102.93 25.584 102.69 26.848C102.322 28.688 102.138 29.968 102.138 30.688C102.138 30.928 102.194 31.12 102.306 31.264C102.434 31.408 102.594 31.48 102.786 31.48C103.09 31.48 103.458 31.288 103.89 30.904C104.322 30.504 104.906 29.864 105.642 28.984C105.834 28.76 106.05 28.648 106.29 28.648C106.498 28.648 106.658 28.744 106.77 28.936C106.898 29.128 106.962 29.392 106.962 29.728C106.962 30.368 106.81 30.864 106.506 31.216C105.85 32.032 105.154 32.72 104.418 33.28C103.682 33.84 102.97 34.12 102.282 34.12C101.754 34.12 101.266 33.944 100.818 33.592C100.386 33.224 100.058 32.728 99.8339 32.104C99.0019 33.448 97.9539 34.12 96.6899 34.12ZM97.5539 31.696C97.9059 31.696 98.2419 31.488 98.5619 31.072C98.8819 30.656 99.1139 30.104 99.2579 29.416L100.146 25C99.4739 25.016 98.8499 25.272 98.2739 25.768C97.7139 26.248 97.2659 26.888 96.9299 27.688C96.5939 28.488 96.4259 29.336 96.4259 30.232C96.4259 30.728 96.5219 31.096 96.7139 31.336C96.9219 31.576 97.2019 31.696 97.5539 31.696ZM106.715 34.12C106.107 34.12 105.675 33.8 105.419 33.16C105.179 32.52 105.059 31.496 105.059 30.088C105.059 28.008 105.355 26.032 105.947 24.16C106.091 23.696 106.323 23.36 106.643 23.152C106.979 22.928 107.443 22.816 108.035 22.816C108.355 22.816 108.579 22.856 108.707 22.936C108.835 23.016 108.899 23.168 108.899 23.392C108.899 23.648 108.779 24.224 108.539 25.12C108.379 25.76 108.251 26.32 108.155 26.8C108.059 27.28 107.979 27.872 107.915 28.576C108.443 27.2 109.035 26.08 109.691 25.216C110.347 24.352 110.987 23.736 111.611 23.368C112.251 23 112.835 22.816 113.363 22.816C114.403 22.816 114.923 23.336 114.923 24.376C114.923 25 114.747 26.128 114.395 27.76C114.091 29.152 113.939 30.072 113.939 30.52C113.939 31.16 114.171 31.48 114.635 31.48C114.955 31.48 115.331 31.288 115.763 30.904C116.211 30.504 116.803 29.864 117.539 28.984C117.731 28.76 117.947 28.648 118.187 28.648C118.395 28.648 118.555 28.744 118.667 28.936C118.795 29.128 118.859 29.392 118.859 29.728C118.859 30.368 118.707 30.864 118.403 31.216C117.715 32.064 116.971 32.76 116.171 33.304C115.387 33.848 114.491 34.12 113.483 34.12C112.667 34.12 112.051 33.888 111.635 33.424C111.219 32.944 111.011 32.256 111.011 31.36C111.011 30.912 111.123 30.112 111.347 28.96C111.555 27.952 111.659 27.256 111.659 26.872C111.659 26.616 111.571 26.488 111.395 26.488C111.187 26.488 110.891 26.76 110.507 27.304C110.139 27.832 109.755 28.536 109.355 29.416C108.971 30.296 108.659 31.224 108.419 32.2C108.243 32.952 108.035 33.464 107.795 33.736C107.571 33.992 107.211 34.12 106.715 34.12ZM120.062 21.232C119.39 21.232 118.886 21.08 118.55 20.776C118.214 20.456 118.046 20.016 118.046 19.456C118.046 18.896 118.262 18.432 118.694 18.064C119.142 17.68 119.694 17.488 120.35 17.488C120.942 17.488 121.422 17.632 121.79 17.92C122.158 18.208 122.342 18.616 122.342 19.144C122.342 19.784 122.134 20.296 121.718 20.68C121.302 21.048 120.75 21.232 120.062 21.232ZM119.87 34.12C118.83 34.12 118.07 33.752 117.59 33.016C117.126 32.28 116.894 31.304 116.894 30.088C116.894 29.368 116.982 28.448 117.158 27.328C117.35 26.192 117.59 25.136 117.878 24.16C118.022 23.648 118.214 23.296 118.454 23.104C118.694 22.912 119.078 22.816 119.606 22.816C120.422 22.816 120.83 23.088 120.83 23.632C120.83 24.032 120.678 24.96 120.374 26.416C119.99 28.176 119.798 29.368 119.798 29.992C119.798 30.472 119.862 30.84 119.99 31.096C120.118 31.352 120.334 31.48 120.638 31.48C120.926 31.48 121.286 31.28 121.718 30.88C122.15 30.48 122.726 29.848 123.446 28.984C123.638 28.76 123.854 28.648 124.094 28.648C124.302 28.648 124.462 28.744 124.574 28.936C124.702 29.128 124.766 29.392 124.766 29.728C124.766 30.368 124.614 30.864 124.31 31.216C122.726 33.152 121.246 34.12 119.87 34.12ZM124.528 34.12C123.92 34.12 123.488 33.8 123.232 33.16C122.992 32.52 122.872 31.496 122.872 30.088C122.872 28.008 123.168 26.032 123.76 24.16C123.904 23.696 124.136 23.36 124.456 23.152C124.792 22.928 125.256 22.816 125.848 22.816C126.168 22.816 126.392 22.856 126.52 22.936C126.648 23.016 126.712 23.168 126.712 23.392C126.712 23.648 126.592 24.224 126.352 25.12C126.192 25.76 126.064 26.32 125.968 26.8C125.872 27.28 125.792 27.872 125.728 28.576C126.256 27.2 126.848 26.08 127.504 25.216C128.16 24.352 128.8 23.736 129.424 23.368C130.064 23 130.648 22.816 131.176 22.816C132.216 22.816 132.736 23.336 132.736 24.376C132.736 25 132.56 26.128 132.208 27.76C131.904 29.152 131.752 30.072 131.752 30.52C131.752 31.16 131.984 31.48 132.448 31.48C132.768 31.48 133.144 31.288 133.576 30.904C134.024 30.504 134.616 29.864 135.352 28.984C135.544 28.76 135.76 28.648 136 28.648C136.208 28.648 136.368 28.744 136.48 28.936C136.608 29.128 136.672 29.392 136.672 29.728C136.672 30.368 136.52 30.864 136.216 31.216C135.528 32.064 134.784 32.76 133.984 33.304C133.2 33.848 132.304 34.12 131.296 34.12C130.48 34.12 129.864 33.888 129.448 33.424C129.032 32.944 128.824 32.256 128.824 31.36C128.824 30.912 128.936 30.112 129.16 28.96C129.368 27.952 129.472 27.256 129.472 26.872C129.472 26.616 129.384 26.488 129.208 26.488C129 26.488 128.704 26.76 128.32 27.304C127.952 27.832 127.568 28.536 127.168 29.416C126.784 30.296 126.472 31.224 126.232 32.2C126.056 32.952 125.848 33.464 125.608 33.736C125.384 33.992 125.024 34.12 124.528 34.12ZM147.018 28.696C147.226 28.696 147.386 28.8 147.498 29.008C147.626 29.2 147.69 29.448 147.69 29.752C147.69 30.12 147.634 30.408 147.522 30.616C147.41 30.824 147.234 31.008 146.994 31.168C145.618 32.096 144.61 32.784 143.97 33.232L142.434 34.264C141.826 37.576 141.026 40.176 140.034 42.064C139.058 43.968 137.81 44.92 136.29 44.92C135.474 44.92 134.81 44.664 134.298 44.152C133.786 43.656 133.53 43 133.53 42.184C133.53 41.048 133.978 39.824 134.874 38.512C135.77 37.216 137.45 35.616 139.914 33.712L140.058 32.776C139.786 33.208 139.426 33.544 138.978 33.784C138.546 34.008 138.114 34.12 137.682 34.12C136.69 34.12 135.898 33.76 135.306 33.04C134.714 32.32 134.418 31.376 134.418 30.208C134.418 28.928 134.714 27.72 135.306 26.584C135.898 25.432 136.682 24.512 137.658 23.824C138.65 23.12 139.698 22.768 140.802 22.768C141.154 22.768 141.386 22.84 141.498 22.984C141.626 23.112 141.73 23.352 141.81 23.704C142.114 23.64 142.466 23.608 142.866 23.608C143.266 23.608 143.546 23.672 143.706 23.8C143.882 23.912 143.97 24.144 143.97 24.496C143.97 24.688 143.962 24.84 143.946 24.952C143.882 25.448 143.682 26.704 143.346 28.72C143.282 29.104 143.21 29.528 143.13 29.992C143.066 30.44 142.994 30.92 142.914 31.432C144.146 30.472 145.33 29.624 146.466 28.888C146.674 28.76 146.858 28.696 147.018 28.696ZM138.546 31.696C138.914 31.696 139.266 31.472 139.602 31.024C139.938 30.576 140.178 29.936 140.322 29.104L141.09 25C140.434 25.016 139.826 25.272 139.266 25.768C138.706 26.248 138.258 26.888 137.922 27.688C137.586 28.488 137.418 29.336 137.418 30.232C137.418 30.728 137.514 31.096 137.706 31.336C137.914 31.576 138.194 31.696 138.546 31.696ZM136.554 42.592C136.954 42.592 137.402 42.112 137.898 41.152C138.41 40.192 138.898 38.664 139.362 36.568C138.13 37.624 137.242 38.576 136.698 39.424C136.154 40.272 135.882 41.016 135.882 41.656C135.882 41.928 135.93 42.152 136.026 42.328C136.138 42.504 136.314 42.592 136.554 42.592ZM163.639 28.648C163.847 28.648 164.007 28.744 164.119 28.936C164.247 29.128 164.311 29.392 164.311 29.728C164.311 30.352 164.159 30.848 163.855 31.216C162.959 32.288 162.087 33.04 161.239 33.472C160.407 33.904 159.399 34.12 158.215 34.12C157.383 34.12 156.615 34.016 155.911 33.808C155.207 33.6 154.351 33.288 153.343 32.872C152.431 32.472 151.551 32.144 150.703 31.888C149.887 33.376 148.663 34.12 147.031 34.12C146.135 34.12 145.423 33.92 144.894 33.52C144.35 33.104 144.078 32.576 144.078 31.936C144.078 31.152 144.454 30.504 145.207 29.992C145.959 29.464 146.959 29.2 148.207 29.2H148.519L148.951 22.216C149.047 20.616 149.335 19.296 149.815 18.256C150.295 17.216 150.959 16.328 151.807 15.592C152.543 14.952 153.383 14.472 154.327 14.152C155.271 13.816 156.271 13.648 157.327 13.648C159.055 13.648 160.383 14.096 161.311 14.992C162.239 15.888 162.703 17.056 162.703 18.496C162.703 19.472 162.527 20.264 162.175 20.872C161.823 21.464 161.335 21.76 160.711 21.76C160.263 21.76 159.911 21.656 159.655 21.448C159.399 21.224 159.271 20.912 159.271 20.512C159.271 20.368 159.303 20.104 159.367 19.72C159.463 19.272 159.511 18.872 159.511 18.52C159.511 17.848 159.311 17.32 158.911 16.936C158.527 16.536 157.935 16.336 157.135 16.336C155.727 16.336 154.639 16.8 153.871 17.728C153.103 18.64 152.615 20.08 152.407 22.048L151.855 27.496C151.775 28.264 151.671 28.928 151.543 29.488C152.567 29.664 153.847 29.944 155.383 30.328C156.279 30.552 156.967 30.712 157.447 30.808C157.927 30.904 158.351 30.952 158.719 30.952C159.647 30.952 160.439 30.8 161.095 30.496C161.767 30.176 162.399 29.672 162.991 28.984C163.183 28.76 163.399 28.648 163.639 28.648ZM165.315 34.12C164.323 34.12 163.531 33.76 162.939 33.04C162.347 32.32 162.051 31.376 162.051 30.208C162.051 28.928 162.347 27.72 162.939 26.584C163.531 25.432 164.315 24.512 165.291 23.824C166.283 23.12 167.331 22.768 168.435 22.768C168.787 22.768 169.019 22.84 169.131 22.984C169.259 23.112 169.363 23.352 169.443 23.704C169.779 23.64 170.131 23.608 170.499 23.608C171.283 23.608 171.675 23.888 171.675 24.448C171.675 24.784 171.555 25.584 171.315 26.848C170.947 28.688 170.763 29.968 170.763 30.688C170.763 30.928 170.819 31.12 170.931 31.264C171.059 31.408 171.219 31.48 171.411 31.48C171.715 31.48 172.083 31.288 172.515 30.904C172.947 30.504 173.531 29.864 174.267 28.984C174.459 28.76 174.675 28.648 174.915 28.648C175.123 28.648 175.283 28.744 175.395 28.936C175.523 29.128 175.587 29.392 175.587 29.728C175.587 30.368 175.435 30.864 175.131 31.216C174.475 32.032 173.779 32.72 173.043 33.28C172.307 33.84 171.595 34.12 170.907 34.12C170.379 34.12 169.891 33.944 169.443 33.592C169.011 33.224 168.683 32.728 168.459 32.104C167.627 33.448 166.579 34.12 165.315 34.12ZM166.179 31.696C166.531 31.696 166.867 31.488 167.187 31.072C167.507 30.656 167.739 30.104 167.883 29.416L168.771 25C168.099 25.016 167.475 25.272 166.899 25.768C166.339 26.248 165.891 26.888 165.555 27.688C165.219 28.488 165.051 29.336 165.051 30.232C165.051 30.728 165.147 31.096 165.339 31.336C165.547 31.576 165.827 31.696 166.179 31.696ZM187.268 28.648C187.476 28.648 187.636 28.744 187.748 28.936C187.876 29.128 187.94 29.392 187.94 29.728C187.94 30.368 187.788 30.864 187.484 31.216C186.828 32.016 186.108 32.704 185.324 33.28C184.54 33.84 183.764 34.12 182.996 34.12C181.78 34.12 180.852 33.408 180.212 31.984C179.54 32.832 178.948 33.4 178.436 33.688C177.94 33.976 177.356 34.12 176.684 34.12C175.708 34.12 174.9 33.76 174.26 33.04C173.636 32.304 173.324 31.352 173.324 30.184C173.324 28.904 173.596 27.72 174.14 26.632C174.684 25.528 175.428 24.632 176.372 23.944C177.332 23.24 178.404 22.824 179.588 22.696C179.892 19.592 180.468 16.944 181.316 14.752C182.18 12.544 183.308 11.44 184.7 11.44C185.388 11.44 185.956 11.752 186.404 12.376C186.868 13 187.1 13.944 187.1 15.208C187.1 17 186.66 19.096 185.78 21.496C184.9 23.896 183.724 26.36 182.252 28.888C182.316 29.816 182.452 30.48 182.66 30.88C182.884 31.28 183.164 31.48 183.5 31.48C183.932 31.48 184.372 31.288 184.82 30.904C185.268 30.52 185.868 29.88 186.62 28.984C186.812 28.76 187.028 28.648 187.268 28.648ZM184.436 13.792C184.132 13.792 183.828 14.336 183.524 15.424C183.22 16.496 182.956 17.904 182.732 19.648C182.524 21.392 182.372 23.216 182.276 25.12C184.068 21.216 184.964 18.08 184.964 15.712C184.964 15.104 184.908 14.632 184.796 14.296C184.7 13.96 184.58 13.792 184.436 13.792ZM177.524 31.696C177.828 31.696 178.132 31.576 178.436 31.336C178.74 31.08 179.124 30.616 179.588 29.944C179.428 29.08 179.348 28.112 179.348 27.04C179.348 26.656 179.364 26.032 179.396 25.168C178.516 25.44 177.78 26.032 177.188 26.944C176.612 27.84 176.324 28.84 176.324 29.944C176.324 31.112 176.724 31.696 177.524 31.696ZM194.388 22.816C194.756 22.816 195.012 22.864 195.156 22.96C195.3 23.056 195.372 23.216 195.372 23.44C195.372 23.824 195.164 25.192 194.748 27.544C194.38 29.8 194.164 31.136 194.1 31.552C193.508 35.664 192.692 38.92 191.652 41.32C190.612 43.72 189.228 44.92 187.5 44.92C186.684 44.92 186.02 44.664 185.508 44.152C184.996 43.656 184.74 43 184.74 42.184C184.74 41.432 184.908 40.664 185.244 39.88C185.596 39.096 186.236 38.192 187.164 37.168C188.108 36.16 189.436 35 191.148 33.688L191.22 33.136C191.332 32.544 191.46 31.696 191.604 30.592C191.284 31.744 190.836 32.624 190.26 33.232C189.684 33.824 189.076 34.12 188.436 34.12C187.716 34.12 187.124 33.792 186.66 33.136C186.212 32.464 185.988 31.632 185.988 30.64C185.988 29.44 186.068 28.344 186.228 27.352C186.388 26.344 186.652 25.28 187.02 24.16C187.18 23.68 187.404 23.336 187.692 23.128C187.98 22.92 188.436 22.816 189.06 22.816C189.412 22.816 189.652 22.872 189.78 22.984C189.924 23.096 189.996 23.264 189.996 23.488C189.996 23.616 189.908 24.048 189.732 24.784C189.572 25.376 189.444 25.912 189.348 26.392C189.22 27.048 189.108 27.68 189.012 28.288C188.916 28.88 188.868 29.368 188.868 29.752C188.868 30.36 189.036 30.664 189.372 30.664C189.612 30.664 189.908 30.424 190.26 29.944C190.628 29.464 191.012 28.736 191.412 27.76C191.828 26.784 192.228 25.584 192.612 24.16C192.74 23.68 192.932 23.336 193.188 23.128C193.46 22.92 193.86 22.816 194.388 22.816ZM187.764 42.592C188.164 42.592 188.612 42.128 189.108 41.2C189.604 40.272 190.1 38.728 190.596 36.568C189.364 37.608 188.468 38.552 187.908 39.4C187.364 40.264 187.092 41.016 187.092 41.656C187.092 41.928 187.14 42.152 187.236 42.328C187.348 42.504 187.524 42.592 187.764 42.592Z" fill="black"/>
</svg>
