<svg width="263" height="57" viewBox="0 0 263 57" fill="none" xmlns="http://www.w3.org/2000/svg">
<path d="M3.41551 30.8459C4.87557 30.7956 6 30.5 6 30.5C6 30.5 4.87557 30.2044 3.41551 30.1533C3.35522 28.9372 3.0005 28 3.0005 28C3.0005 28 2.64478 28.9372 2.58449 30.1533C1.12343 30.2044 0 30.5 0 30.5C0 30.5 1.12343 30.7956 2.58449 30.8459C2.64478 32.0637 3.0005 33 3.0005 33C3.0005 33 3.35622 32.0637 3.41551 30.8459Z" fill="#14B8A6"/>
<path d="M9.55418 34.5538C11.5009 34.4732 13 34 13 34C13 34 11.5009 33.5268 9.55418 33.4462C9.47368 31.4993 8.99951 30 8.99951 30C8.99951 30 8.52632 31.4993 8.44582 33.4462C6.49908 33.5268 5 34 5 34C5 34 6.49908 34.4732 8.44582 34.5538C8.52632 36.5007 8.99951 38 8.99951 38C8.99951 38 9.47368 36.5007 9.55418 34.5538V34.5538Z" fill="#14B8A6"/>
<path d="M21.2767 20.2767C22.2499 20.2367 23 20 23 20C23 20 22.2509 19.7633 21.2767 19.7223C21.2367 18.7491 21 18 21 18C21 18 20.7633 18.7501 20.7233 19.7223C19.7491 19.7633 19 20 19 20C19 20 19.7491 20.2367 20.7233 20.2767C20.7633 21.2509 21 22 21 22C21 22 21.2367 21.2509 21.2767 20.2767Z" fill="#14B8A6"/>
<path d="M24.8464 22.846C26.0634 22.7959 27 22.5 27 22.5C27 22.5 26.0634 22.2041 24.8464 22.154C24.7963 20.9368 24.4995 20 24.4995 20C24.4995 20 24.2037 20.9377 24.1536 22.154C22.9366 22.2041 22 22.5 22 22.5C22 22.5 22.9366 22.7959 24.1536 22.846C24.2037 24.0632 24.4995 25 24.4995 25C24.4995 25 24.7953 24.0632 24.8464 22.846Z" fill="#14B8A6"/>
<path d="M9.44801 15.0439C9.07747 15.1493 8.70693 15.2647 8.33966 15.3912C8.66976 15.2065 9.00751 15.0309 9.35292 14.8613L7.86528 12C4.64626 15.3922 2.61866 19.5862 2 24C3.55978 20.7172 6.30004 17.8881 10 16.1057L9.44801 15.0439V15.0439Z" fill="#14B8A6"/>
<path d="M15.1311 6.26817C14.0208 6.81545 12.9765 7.44462 12 8.1457L13.7216 12.9054C21.8098 10.9151 30.4512 14.8199 34.2379 22.7245C38.6053 31.8405 34.861 42.8231 25.876 47.2533C25.3504 47.5129 24.8179 47.7436 24.2814 47.9474C29.1105 44.9653 32.1373 39.9639 32.8096 34.561C31.6097 38.8393 28.6883 42.6004 24.435 44.6986C20.8766 46.4533 16.9925 46.7449 13.443 45.8072C18.9316 49.1308 25.7392 49.9927 32.0724 47.7616C40.6084 42.0002 43.8459 30.5832 39.2402 20.9688C34.5076 11.0928 23.1878 6.64368 13.2521 10.4177C13.8151 10.0692 14.3988 9.7456 15.0042 9.44699C25.3406 4.34969 37.7923 8.71895 42.8153 19.2062C47.6582 29.3159 43.8291 41.4189 34.2881 46.8428C34.3639 46.8059 34.4397 46.7699 34.5155 46.733C45.5291 41.3021 50.117 27.8408 44.7643 16.6675C39.4115 5.49319 26.1448 0.837312 15.1311 6.26817Z" fill="#14B8A6"/>
<path d="M7.87422 7.0884C6.93439 7.48161 6.71857 9.07314 7.39187 10.644L16.7027 29.9213L15.3322 30.4924C14.82 30.7048 14.5803 31.2887 14.7961 31.7949C14.9135 32.0702 15.1432 32.2658 15.4098 32.3523C16.7484 36.8526 13.2914 42.6722 12.1049 44.4839C13.0478 44.7287 14.0015 44.886 14.9553 44.9587C16.814 42.5906 17.8295 39.5805 17.6345 36.4063C17.7101 36.7406 17.7777 37.0787 17.8275 37.4238C18.2153 40.1242 17.7101 42.7449 16.5395 45C18.0393 44.9666 19.5231 44.7257 20.9483 44.2863C21.3899 42.7724 21.553 41.1603 21.3859 39.5147C21.4754 39.845 21.555 40.1812 21.6176 40.5243C21.8354 41.7019 21.8802 42.8708 21.7718 44.0071C23.004 43.553 24.1825 42.9484 25.2795 42.1984C25.3421 39.3741 24.462 36.5253 22.6072 34.1542C22.8608 34.3882 23.1084 34.631 23.3461 34.8885C25.0557 36.7465 26.1 38.9681 26.5027 41.2714C27.4167 40.5075 28.2561 39.6326 29 38.6506C28.7205 35.5029 23.6514 31.6789 20.9374 30.0274C21.0507 29.7837 21.0647 29.4956 20.9503 29.2292C20.7345 28.723 20.1437 28.4861 19.6325 28.6984L18.2362 29.2803L10.7932 9.2206C10.1209 7.6507 8.81305 6.69519 7.87521 7.0884H7.87422Z" fill="#292929"/>
<path d="M74.496 42.16C71.9573 42.16 69.7493 41.7013 67.872 40.784C65.9947 39.8453 64.5547 38.5227 63.552 36.816C62.5493 35.1093 62.048 33.1253 62.048 30.864C62.048 27.728 62.6347 24.944 63.808 22.512C65.0027 20.08 66.6133 18.2027 68.64 16.88C70.6667 15.536 72.9173 14.864 75.392 14.864C77.696 14.864 79.4453 15.4613 80.64 16.656C81.8347 17.8293 82.432 19.3867 82.432 21.328C82.432 22.6293 82.1973 23.6747 81.728 24.464C81.28 25.2533 80.6293 25.648 79.776 25.648C79.1787 25.648 78.7093 25.5093 78.368 25.232C78.0267 24.9547 77.856 24.5493 77.856 24.016C77.856 23.824 77.8987 23.472 77.984 22.96C78.112 22.32 78.176 21.808 78.176 21.424C78.176 19.4827 77.1413 18.512 75.072 18.512C73.664 18.512 72.32 18.9707 71.04 19.888C69.76 20.8053 68.7253 22.16 67.936 23.952C67.1467 25.7227 66.752 27.8347 66.752 30.288C66.752 32.848 67.4667 34.832 68.896 36.24C70.3253 37.6267 72.4373 38.32 75.232 38.32C76.6187 38.32 78.016 38.1493 79.424 37.808C80.8533 37.4453 82.432 36.9013 84.16 36.176C84.48 36.048 84.7467 35.984 84.96 35.984C85.3013 35.984 85.5573 36.112 85.728 36.368C85.8987 36.624 85.984 36.9547 85.984 37.36C85.984 38.6613 85.28 39.6213 83.872 40.24C82.3573 40.9013 80.7787 41.392 79.136 41.712C77.5147 42.0107 75.968 42.16 74.496 42.16ZM95.6015 34.864C95.8788 34.864 96.0922 34.992 96.2415 35.248C96.4122 35.504 96.4975 35.856 96.4975 36.304C96.4975 37.1573 96.2948 37.8187 95.8895 38.288C94.9722 39.4187 93.9695 40.3467 92.8815 41.072C91.8148 41.7973 90.5988 42.16 89.2335 42.16C87.3562 42.16 85.9588 41.3067 85.0415 39.6C84.1455 37.8933 83.6975 35.6853 83.6975 32.976C83.6975 30.3733 84.0282 27.408 84.6895 24.08C85.3722 20.752 86.3642 17.8933 87.6655 15.504C88.9882 13.1147 90.5562 11.92 92.3695 11.92C93.3935 11.92 94.1935 12.4 94.7695 13.36C95.3668 14.2987 95.6655 15.6533 95.6655 17.424C95.6655 19.9627 94.9615 22.9067 93.5535 26.256C92.1455 29.6053 90.2362 32.9227 87.8255 36.208C87.9748 37.0827 88.2202 37.712 88.5615 38.096C88.9028 38.4587 89.3508 38.64 89.9055 38.64C90.7802 38.64 91.5482 38.3947 92.2095 37.904C92.8708 37.392 93.7135 36.528 94.7375 35.312C94.9935 35.0133 95.2815 34.864 95.6015 34.864ZM91.6655 15.088C91.1748 15.088 90.6202 15.9733 90.0015 17.744C89.3828 19.5147 88.8388 21.712 88.3695 24.336C87.9002 26.96 87.6442 29.4773 87.6015 31.888C89.1162 29.392 90.3215 26.896 91.2175 24.4C92.1135 21.8827 92.5615 19.5893 92.5615 17.52C92.5615 15.8987 92.2628 15.088 91.6655 15.088ZM108.183 34.864C108.46 34.864 108.674 34.992 108.823 35.248C108.994 35.504 109.079 35.856 109.079 36.304C109.079 37.1573 108.876 37.8187 108.471 38.288C107.682 39.248 106.562 40.1333 105.111 40.944C103.682 41.7547 102.146 42.16 100.503 42.16C98.263 42.16 96.5243 41.552 95.287 40.336C94.0497 39.12 93.431 37.456 93.431 35.344C93.431 33.872 93.7403 32.5067 94.359 31.248C94.9777 29.968 95.831 28.9547 96.919 28.208C98.0283 27.4613 99.2763 27.088 100.663 27.088C101.9 27.088 102.892 27.4613 103.639 28.208C104.386 28.9333 104.759 29.9253 104.759 31.184C104.759 32.656 104.226 33.9253 103.159 34.992C102.114 36.0373 100.332 36.8693 97.815 37.488C98.3483 38.4693 99.3617 38.96 100.855 38.96C101.815 38.96 102.903 38.6293 104.119 37.968C105.356 37.2853 106.423 36.4 107.319 35.312C107.575 35.0133 107.863 34.864 108.183 34.864ZM100.119 30.224C99.3297 30.224 98.6577 30.6827 98.103 31.6C97.5697 32.5173 97.303 33.6267 97.303 34.928V34.992C98.5617 34.6933 99.5537 34.2453 100.279 33.648C101.004 33.0507 101.367 32.3573 101.367 31.568C101.367 31.1627 101.25 30.8427 101.015 30.608C100.802 30.352 100.503 30.224 100.119 30.224ZM110.253 42.16C108.931 42.16 107.875 41.68 107.085 40.72C106.296 39.76 105.901 38.5013 105.901 36.944C105.901 35.2373 106.296 33.6267 107.085 32.112C107.875 30.576 108.92 29.3493 110.221 28.432C111.544 27.4933 112.941 27.024 114.413 27.024C114.883 27.024 115.192 27.12 115.341 27.312C115.512 27.4827 115.651 27.8027 115.757 28.272C116.205 28.1867 116.675 28.144 117.165 28.144C118.211 28.144 118.733 28.5173 118.733 29.264C118.733 29.712 118.573 30.7787 118.253 32.464C117.763 34.9173 117.517 36.624 117.517 37.584C117.517 37.904 117.592 38.16 117.741 38.352C117.912 38.544 118.125 38.64 118.381 38.64C118.787 38.64 119.277 38.384 119.853 37.872C120.429 37.3387 121.208 36.4853 122.189 35.312C122.445 35.0133 122.733 34.864 123.053 34.864C123.331 34.864 123.544 34.992 123.693 35.248C123.864 35.504 123.949 35.856 123.949 36.304C123.949 37.1573 123.747 37.8187 123.341 38.288C122.467 39.376 121.539 40.2933 120.557 41.04C119.576 41.7867 118.627 42.16 117.709 42.16C117.005 42.16 116.355 41.9253 115.757 41.456C115.181 40.9653 114.744 40.304 114.445 39.472C113.336 41.264 111.939 42.16 110.253 42.16ZM111.405 38.928C111.875 38.928 112.323 38.6507 112.749 38.096C113.176 37.5413 113.485 36.8053 113.677 35.888L114.861 30C113.965 30.0213 113.133 30.3627 112.365 31.024C111.619 31.664 111.021 32.5173 110.573 33.584C110.125 34.6507 109.901 35.7813 109.901 36.976C109.901 37.6373 110.029 38.128 110.285 38.448C110.563 38.768 110.936 38.928 111.405 38.928ZM123.621 42.16C122.81 42.16 122.234 41.7333 121.893 40.88C121.573 40.0267 121.413 38.6613 121.413 36.784C121.413 34.0107 121.807 31.376 122.597 28.88C122.789 28.2613 123.098 27.8133 123.525 27.536C123.973 27.2373 124.591 27.088 125.381 27.088C125.807 27.088 126.106 27.1413 126.277 27.248C126.447 27.3547 126.533 27.5573 126.533 27.856C126.533 28.1973 126.373 28.9653 126.053 30.16C125.839 31.0133 125.669 31.76 125.541 32.4C125.413 33.04 125.306 33.8293 125.221 34.768C125.925 32.9333 126.714 31.44 127.589 30.288C128.463 29.136 129.317 28.3147 130.149 27.824C131.002 27.3333 131.781 27.088 132.485 27.088C133.871 27.088 134.565 27.7813 134.565 29.168C134.565 30 134.33 31.504 133.861 33.68C133.455 35.536 133.253 36.7627 133.253 37.36C133.253 38.2133 133.562 38.64 134.181 38.64C134.607 38.64 135.109 38.384 135.685 37.872C136.282 37.3387 137.071 36.4853 138.053 35.312C138.309 35.0133 138.597 34.864 138.917 34.864C139.194 34.864 139.407 34.992 139.557 35.248C139.727 35.504 139.812 35.856 139.812 36.304C139.812 37.1573 139.61 37.8187 139.205 38.288C138.287 39.4187 137.295 40.3467 136.229 41.072C135.183 41.7973 133.989 42.16 132.645 42.16C131.557 42.16 130.735 41.8507 130.181 41.232C129.626 40.592 129.349 39.6747 129.349 38.48C129.349 37.8827 129.498 36.816 129.797 35.28C130.074 33.936 130.213 33.008 130.213 32.496C130.213 32.1547 130.095 31.984 129.861 31.984C129.583 31.984 129.189 32.3467 128.677 33.072C128.186 33.776 127.674 34.7147 127.141 35.888C126.629 37.0613 126.213 38.2987 125.893 39.6C125.658 40.6027 125.381 41.2853 125.061 41.648C124.762 41.9893 124.282 42.16 123.621 42.16ZM141.416 24.976C140.52 24.976 139.848 24.7733 139.4 24.368C138.952 23.9413 138.728 23.3547 138.728 22.608C138.728 21.8613 139.016 21.2427 139.592 20.752C140.189 20.24 140.925 19.984 141.8 19.984C142.589 19.984 143.229 20.176 143.72 20.56C144.21 20.944 144.456 21.488 144.456 22.192C144.456 23.0453 144.178 23.728 143.624 24.24C143.069 24.7307 142.333 24.976 141.416 24.976ZM141.16 42.16C139.773 42.16 138.76 41.6693 138.12 40.688C137.501 39.7067 137.192 38.4053 137.192 36.784C137.192 35.824 137.309 34.5973 137.544 33.104C137.8 31.5893 138.12 30.1813 138.504 28.88C138.696 28.1973 138.952 27.728 139.272 27.472C139.592 27.216 140.104 27.088 140.808 27.088C141.896 27.088 142.44 27.4507 142.44 28.176C142.44 28.7093 142.237 29.9467 141.832 31.888C141.32 34.2347 141.064 35.824 141.064 36.656C141.064 37.296 141.149 37.7867 141.32 38.128C141.49 38.4693 141.778 38.64 142.184 38.64C142.568 38.64 143.048 38.3733 143.624 37.84C144.2 37.3067 144.968 36.464 145.928 35.312C146.184 35.0133 146.472 34.864 146.792 34.864C147.069 34.864 147.282 34.992 147.432 35.248C147.602 35.504 147.688 35.856 147.688 36.304C147.688 37.1573 147.485 37.8187 147.08 38.288C144.968 40.8693 142.994 42.16 141.16 42.16ZM147.371 42.16C146.56 42.16 145.984 41.7333 145.643 40.88C145.323 40.0267 145.163 38.6613 145.163 36.784C145.163 34.0107 145.557 31.376 146.347 28.88C146.539 28.2613 146.848 27.8133 147.275 27.536C147.723 27.2373 148.341 27.088 149.131 27.088C149.557 27.088 149.856 27.1413 150.027 27.248C150.197 27.3547 150.283 27.5573 150.283 27.856C150.283 28.1973 150.123 28.9653 149.803 30.16C149.589 31.0133 149.419 31.76 149.291 32.4C149.163 33.04 149.056 33.8293 148.971 34.768C149.675 32.9333 150.464 31.44 151.339 30.288C152.213 29.136 153.067 28.3147 153.899 27.824C154.752 27.3333 155.531 27.088 156.235 27.088C157.621 27.088 158.315 27.7813 158.315 29.168C158.315 30 158.08 31.504 157.611 33.68C157.205 35.536 157.003 36.7627 157.003 37.36C157.003 38.2133 157.312 38.64 157.931 38.64C158.357 38.64 158.859 38.384 159.435 37.872C160.032 37.3387 160.821 36.4853 161.803 35.312C162.059 35.0133 162.347 34.864 162.667 34.864C162.944 34.864 163.157 34.992 163.307 35.248C163.477 35.504 163.562 35.856 163.562 36.304C163.562 37.1573 163.36 37.8187 162.955 38.288C162.037 39.4187 161.045 40.3467 159.979 41.072C158.933 41.7973 157.739 42.16 156.395 42.16C155.307 42.16 154.485 41.8507 153.931 41.232C153.376 40.592 153.099 39.6747 153.099 38.48C153.099 37.8827 153.248 36.816 153.547 35.28C153.824 33.936 153.963 33.008 153.963 32.496C153.963 32.1547 153.845 31.984 153.611 31.984C153.333 31.984 152.939 32.3467 152.427 33.072C151.936 33.776 151.424 34.7147 150.891 35.888C150.379 37.0613 149.963 38.2987 149.643 39.6C149.408 40.6027 149.131 41.2853 148.811 41.648C148.512 41.9893 148.032 42.16 147.371 42.16ZM177.358 34.928C177.635 34.928 177.848 35.0667 177.998 35.344C178.168 35.6 178.253 35.9307 178.253 36.336C178.253 36.8267 178.179 37.2107 178.03 37.488C177.88 37.7653 177.646 38.0107 177.326 38.224C175.491 39.4613 174.147 40.3787 173.294 40.976L171.246 42.352C170.435 46.768 169.368 50.2347 168.046 52.752C166.744 55.2907 165.08 56.56 163.054 56.56C161.966 56.56 161.08 56.2187 160.398 55.536C159.715 54.8747 159.373 54 159.373 52.912C159.373 51.3973 159.971 49.7653 161.166 48.016C162.36 46.288 164.6 44.1547 167.885 41.616L168.078 40.368C167.715 40.944 167.235 41.392 166.638 41.712C166.062 42.0107 165.486 42.16 164.91 42.16C163.587 42.16 162.531 41.68 161.742 40.72C160.952 39.76 160.558 38.5013 160.558 36.944C160.558 35.2373 160.952 33.6267 161.742 32.112C162.531 30.576 163.576 29.3493 164.878 28.432C166.2 27.4933 167.598 27.024 169.07 27.024C169.539 27.024 169.848 27.12 169.998 27.312C170.168 27.4827 170.307 27.8027 170.414 28.272C170.819 28.1867 171.288 28.144 171.822 28.144C172.355 28.144 172.728 28.2293 172.942 28.4C173.176 28.5493 173.294 28.8587 173.294 29.328C173.294 29.584 173.283 29.7867 173.262 29.936C173.176 30.5973 172.91 32.272 172.462 34.96C172.376 35.472 172.28 36.0373 172.174 36.656C172.088 37.2533 171.992 37.8933 171.886 38.576C173.528 37.296 175.107 36.1653 176.622 35.184C176.899 35.0133 177.144 34.928 177.358 34.928ZM166.062 38.928C166.552 38.928 167.022 38.6293 167.47 38.032C167.918 37.4347 168.238 36.5813 168.43 35.472L169.454 30C168.579 30.0213 167.768 30.3627 167.022 31.024C166.275 31.664 165.678 32.5173 165.23 33.584C164.782 34.6507 164.558 35.7813 164.558 36.976C164.558 37.6373 164.686 38.128 164.942 38.448C165.219 38.768 165.592 38.928 166.062 38.928ZM163.406 53.456C163.939 53.456 164.536 52.816 165.198 51.536C165.88 50.256 166.531 48.2187 167.15 45.424C165.507 46.832 164.323 48.1013 163.598 49.232C162.872 50.3627 162.51 51.3547 162.51 52.208C162.51 52.5707 162.574 52.8693 162.702 53.104C162.851 53.3387 163.086 53.456 163.406 53.456ZM199.518 34.864C199.795 34.864 200.009 34.992 200.158 35.248C200.329 35.504 200.414 35.856 200.414 36.304C200.414 37.136 200.211 37.7973 199.806 38.288C198.611 39.7173 197.449 40.72 196.318 41.296C195.209 41.872 193.865 42.16 192.286 42.16C191.177 42.16 190.153 42.0213 189.214 41.744C188.275 41.4667 187.134 41.0507 185.79 40.496C184.574 39.9627 183.401 39.5253 182.27 39.184C181.182 41.168 179.55 42.16 177.374 42.16C176.179 42.16 175.23 41.8933 174.526 41.36C173.801 40.8053 173.438 40.1013 173.438 39.248C173.438 38.2027 173.939 37.3387 174.942 36.656C175.945 35.952 177.278 35.6 178.942 35.6H179.358L179.934 26.288C180.062 24.1547 180.446 22.3947 181.086 21.008C181.726 19.6213 182.611 18.4373 183.742 17.456C184.723 16.6027 185.843 15.9627 187.102 15.536C188.361 15.088 189.694 14.864 191.102 14.864C193.406 14.864 195.177 15.4613 196.414 16.656C197.651 17.8507 198.27 19.408 198.27 21.328C198.27 22.6293 198.035 23.6853 197.566 24.496C197.097 25.2853 196.446 25.68 195.614 25.68C195.017 25.68 194.547 25.5413 194.206 25.264C193.865 24.9653 193.694 24.5493 193.694 24.016C193.694 23.824 193.737 23.472 193.822 22.96C193.95 22.3627 194.014 21.8293 194.014 21.36C194.014 20.464 193.747 19.76 193.214 19.248C192.702 18.7147 191.913 18.448 190.846 18.448C188.969 18.448 187.518 19.0667 186.494 20.304C185.47 21.52 184.819 23.44 184.542 26.064L183.806 33.328C183.699 34.352 183.561 35.2373 183.39 35.984C184.755 36.2187 186.462 36.592 188.51 37.104C189.705 37.4027 190.622 37.616 191.262 37.744C191.902 37.872 192.467 37.936 192.958 37.936C194.195 37.936 195.251 37.7333 196.126 37.328C197.022 36.9013 197.865 36.2293 198.654 35.312C198.91 35.0133 199.198 34.864 199.518 34.864ZM201.753 42.16C200.431 42.16 199.375 41.68 198.585 40.72C197.796 39.76 197.401 38.5013 197.401 36.944C197.401 35.2373 197.796 33.6267 198.585 32.112C199.375 30.576 200.42 29.3493 201.721 28.432C203.044 27.4933 204.441 27.024 205.913 27.024C206.383 27.024 206.692 27.12 206.841 27.312C207.012 27.4827 207.151 27.8027 207.257 28.272C207.705 28.1867 208.175 28.144 208.665 28.144C209.711 28.144 210.233 28.5173 210.233 29.264C210.233 29.712 210.073 30.7787 209.753 32.464C209.263 34.9173 209.017 36.624 209.017 37.584C209.017 37.904 209.092 38.16 209.241 38.352C209.412 38.544 209.625 38.64 209.881 38.64C210.287 38.64 210.777 38.384 211.353 37.872C211.929 37.3387 212.708 36.4853 213.689 35.312C213.945 35.0133 214.233 34.864 214.553 34.864C214.831 34.864 215.044 34.992 215.193 35.248C215.364 35.504 215.449 35.856 215.449 36.304C215.449 37.1573 215.247 37.8187 214.841 38.288C213.967 39.376 213.039 40.2933 212.057 41.04C211.076 41.7867 210.127 42.16 209.209 42.16C208.505 42.16 207.855 41.9253 207.257 41.456C206.681 40.9653 206.244 40.304 205.945 39.472C204.836 41.264 203.439 42.16 201.753 42.16ZM202.905 38.928C203.375 38.928 203.823 38.6507 204.249 38.096C204.676 37.5413 204.985 36.8053 205.177 35.888L206.361 30C205.465 30.0213 204.633 30.3627 203.865 31.024C203.119 31.664 202.521 32.5173 202.073 33.584C201.625 34.6507 201.401 35.7813 201.401 36.976C201.401 37.6373 201.529 38.128 201.785 38.448C202.063 38.768 202.436 38.928 202.905 38.928ZM231.025 34.864C231.302 34.864 231.515 34.992 231.665 35.248C231.835 35.504 231.921 35.856 231.921 36.304C231.921 37.1573 231.718 37.8187 231.312 38.288C230.438 39.3547 229.478 40.272 228.433 41.04C227.387 41.7867 226.353 42.16 225.329 42.16C223.707 42.16 222.47 41.2107 221.617 39.312C220.721 40.4427 219.931 41.2 219.249 41.584C218.587 41.968 217.809 42.16 216.913 42.16C215.611 42.16 214.534 41.68 213.681 40.72C212.849 39.7387 212.433 38.4693 212.433 36.912C212.433 35.2053 212.795 33.6267 213.521 32.176C214.246 30.704 215.238 29.5093 216.497 28.592C217.777 27.6533 219.206 27.0987 220.785 26.928C221.19 22.7893 221.958 19.2587 223.089 16.336C224.241 13.392 225.745 11.92 227.601 11.92C228.518 11.92 229.275 12.336 229.873 13.168C230.491 14 230.801 15.2587 230.801 16.944C230.801 19.3333 230.214 22.128 229.041 25.328C227.867 28.528 226.299 31.8133 224.337 35.184C224.422 36.4213 224.603 37.3067 224.881 37.84C225.179 38.3733 225.553 38.64 226.001 38.64C226.577 38.64 227.163 38.384 227.76 37.872C228.358 37.36 229.158 36.5067 230.161 35.312C230.417 35.0133 230.705 34.864 231.025 34.864ZM227.249 15.056C226.843 15.056 226.438 15.7813 226.033 17.232C225.627 18.6613 225.275 20.5387 224.977 22.864C224.699 25.1893 224.497 27.6213 224.369 30.16C226.758 24.9547 227.953 20.7733 227.953 17.616C227.953 16.8053 227.878 16.176 227.729 15.728C227.601 15.28 227.441 15.056 227.249 15.056ZM218.033 38.928C218.438 38.928 218.843 38.768 219.249 38.448C219.654 38.1067 220.166 37.488 220.785 36.592C220.571 35.44 220.465 34.1493 220.465 32.72C220.465 32.208 220.486 31.376 220.529 30.224C219.355 30.5867 218.374 31.376 217.585 32.592C216.817 33.7867 216.433 35.12 216.433 36.592C216.433 38.1493 216.966 38.928 218.033 38.928ZM240.517 27.088C241.008 27.088 241.349 27.152 241.541 27.28C241.733 27.408 241.829 27.6213 241.829 27.92C241.829 28.432 241.552 30.256 240.997 33.392C240.507 36.4 240.219 38.1813 240.133 38.736C239.344 44.2187 238.256 48.56 236.869 51.76C235.483 54.96 233.637 56.56 231.333 56.56C230.245 56.56 229.36 56.2187 228.677 55.536C227.995 54.8747 227.653 54 227.653 52.912C227.653 51.9093 227.877 50.8853 228.325 49.84C228.795 48.7947 229.648 47.5893 230.885 46.224C232.144 44.88 233.915 43.3333 236.197 41.584L236.293 40.848C236.443 40.0587 236.613 38.928 236.805 37.456C236.379 38.992 235.781 40.1653 235.013 40.976C234.245 41.7653 233.435 42.16 232.581 42.16C231.621 42.16 230.832 41.7227 230.213 40.848C229.616 39.952 229.317 38.8427 229.317 37.52C229.317 35.92 229.424 34.4587 229.637 33.136C229.851 31.792 230.203 30.3733 230.693 28.88C230.907 28.24 231.205 27.7813 231.589 27.504C231.973 27.2267 232.581 27.088 233.413 27.088C233.883 27.088 234.203 27.1627 234.373 27.312C234.565 27.4613 234.661 27.6853 234.661 27.984C234.661 28.1547 234.544 28.7307 234.309 29.712C234.096 30.5013 233.925 31.216 233.797 31.856C233.627 32.7307 233.477 33.5733 233.349 34.384C233.221 35.1733 233.157 35.824 233.157 36.336C233.157 37.1467 233.381 37.552 233.829 37.552C234.149 37.552 234.544 37.232 235.013 36.592C235.504 35.952 236.016 34.9813 236.549 33.68C237.104 32.3787 237.637 30.7787 238.149 28.88C238.32 28.24 238.576 27.7813 238.917 27.504C239.28 27.2267 239.813 27.088 240.517 27.088ZM231.685 53.456C232.219 53.456 232.816 52.8373 233.477 51.6C234.139 50.3627 234.8 48.304 235.461 45.424C233.819 46.8107 232.624 48.0693 231.877 49.2C231.152 50.352 230.789 51.3547 230.789 52.208C230.789 52.5707 230.853 52.8693 230.981 53.104C231.131 53.3387 231.365 53.456 231.685 53.456Z" fill="black"/>
</svg>
